<?xml version="1.0" encoding="UTF-8" standalone="no"?>
<!DOCTYPE svg PUBLIC "-//W3C//DTD SVG 1.1//EN"
 "http://www.w3.org/Graphics/SVG/1.1/DTD/svg11.dtd">
<!-- Generated by graphviz version 14.1.2 (0)
 -->
<!-- Title: HomeNetwork Pages: 1 -->
<svg width="986pt" height="766pt"
 viewBox="0.00 0.00 986.00 766.00" xmlns="http://www.w3.org/2000/svg" xmlns:xlink="http://www.w3.org/1999/xlink">
<g id="graph0" class="graph" transform="scale(1 1) rotate(0) translate(4 762.25)">
<title>HomeNetwork</title>
<polygon fill="white" stroke="none" points="-4,4 -4,-762.25 981.88,-762.25 981.88,4 -4,4"/>
<g id="clust1" class="cluster">
<title>cluster_router</title>
<path fill="none" stroke="black" d="M398,-292C398,-292 780,-292 780,-292 786,-292 792,-298 792,-304 792,-304 792,-555.75 792,-555.75 792,-561.75 786,-567.75 780,-567.75 780,-567.75 398,-567.75 398,-567.75 392,-567.75 386,-561.75 386,-555.75 386,-555.75 386,-304 386,-304 386,-298 392,-292 398,-292"/>
<text xml:space="preserve" text-anchor="middle" x="589" y="-550.45" font-family="Helvetica,sans-Serif" font-size="14.00">MikroTik RB4011</text>
</g>
<g id="clust2" class="cluster">
<title>cluster_lab</title>
<polygon fill="#d6f5d6" stroke="#d6f5d6" points="394,-300 394,-399.25 554,-399.25 554,-300 394,-300"/>
<text xml:space="preserve" text-anchor="middle" x="474" y="-381.95" font-family="Helvetica,sans-Serif" font-size="14.00">Switch Chip A</text>
</g>
<g id="clust3" class="cluster">
<title>cluster_home</title>
<polygon fill="#d6ecff" stroke="#d6ecff" points="574,-300 574,-399.25 784,-399.25 784,-300 574,-300"/>
<text xml:space="preserve" text-anchor="middle" x="679" y="-381.95" font-family="Helvetica,sans-Serif" font-size="14.00">Switch Chip B</text>
</g>
<!-- Internet -->
<g id="node1" class="node">
<title>Internet</title>
<path fill="#d0e7ff" stroke="black" d="M567.12,-758.25C567.12,-758.25 536.88,-758.25 536.88,-758.25 530.88,-758.25 524.88,-752.25 524.88,-746.25 524.88,-746.25 524.88,-734.25 524.88,-734.25 524.88,-728.25 530.88,-722.25 536.88,-722.25 536.88,-722.25 567.12,-722.25 567.12,-722.25 573.12,-722.25 579.12,-728.25 579.12,-734.25 579.12,-734.25 579.12,-746.25 579.12,-746.25 579.12,-752.25 573.12,-758.25 567.12,-758.25"/>
<text xml:space="preserve" text-anchor="middle" x="552" y="-737.12" font-family="Helvetica,sans-Serif" font-size="10.00">Internet</text>
</g>
<!-- ONT -->
<g id="node2" class="node">
<title>ONT</title>
<path fill="#d0e7ff" stroke="black" d="M579.12,-663.25C579.12,-663.25 524.88,-663.25 524.88,-663.25 518.88,-663.25 512.88,-657.25 512.88,-651.25 512.88,-651.25 512.88,-639.25 512.88,-639.25 512.88,-633.25 518.88,-627.25 524.88,-627.25 524.88,-627.25 579.12,-627.25 579.12,-627.25 585.12,-627.25 591.12,-633.25 591.12,-639.25 591.12,-639.25 591.12,-651.25 591.12,-651.25 591.12,-657.25 585.12,-663.25 579.12,-663.25"/>
<text xml:space="preserve" text-anchor="middle" x="552" y="-642.12" font-family="Helvetica,sans-Serif" font-size="10.00">EE FTTP ONT</text>
</g>
<!-- Internet&#45;&gt;ONT -->
<g id="edge1" class="edge">
<title>Internet&#45;&gt;ONT</title>
<path fill="none" stroke="black" d="M552,-721.93C552,-721.93 552,-675.02 552,-675.02"/>
<polygon fill="black" stroke="black" points="555.5,-675.02 552,-665.02 548.5,-675.02 555.5,-675.02"/>
</g>
<!-- CPU -->
<g id="node3" class="node">
<title>CPU</title>
<path fill="#ffe9b3" stroke="black" d="M575.75,-534.5C575.75,-534.5 528.25,-534.5 528.25,-534.5 522.25,-534.5 516.25,-528.5 516.25,-522.5 516.25,-522.5 516.25,-449.25 516.25,-449.25 516.25,-443.25 522.25,-437.25 528.25,-437.25 528.25,-437.25 575.75,-437.25 575.75,-437.25 581.75,-437.25 587.75,-443.25 587.75,-449.25 587.75,-449.25 587.75,-522.5 587.75,-522.5 587.75,-528.5 581.75,-534.5 575.75,-534.5"/>
<text xml:space="preserve" text-anchor="middle" x="552" y="-521" font-family="Helvetica,sans-Serif" font-size="10.00">Router CPU</text>
<text xml:space="preserve" text-anchor="middle" x="552" y="-508.25" font-family="Helvetica,sans-Serif" font-size="10.00">PPPoE</text>
<text xml:space="preserve" text-anchor="middle" x="552" y="-495.5" font-family="Helvetica,sans-Serif" font-size="10.00">Firewall</text>
<text xml:space="preserve" text-anchor="middle" x="552" y="-482.75" font-family="Helvetica,sans-Serif" font-size="10.00">DHCP</text>
<text xml:space="preserve" text-anchor="middle" x="552" y="-470" font-family="Helvetica,sans-Serif" font-size="10.00">DNS</text>
<text xml:space="preserve" text-anchor="middle" x="552" y="-457.25" font-family="Helvetica,sans-Serif" font-size="10.00">NTP</text>
<text xml:space="preserve" text-anchor="middle" x="552" y="-444.5" font-family="Helvetica,sans-Serif" font-size="10.00">IPv6</text>
</g>
<!-- ONT&#45;&gt;CPU -->
<g id="edge4" class="edge">
<title>ONT&#45;&gt;CPU</title>
<path fill="none" stroke="black" d="M552,-626.97C552,-626.97 552,-546.33 552,-546.33"/>
<polygon fill="black" stroke="black" points="555.5,-546.33 552,-536.33 548.5,-546.33 555.5,-546.33"/>
<text xml:space="preserve" text-anchor="middle" x="570" y="-589.7" font-family="Helvetica,sans-Serif" font-size="9.00">PPPoE</text>
<text xml:space="preserve" text-anchor="middle" x="570" y="-578.45" font-family="Helvetica,sans-Serif" font-size="9.00">ether10</text>
</g>
<!-- LabPorts -->
<g id="node4" class="node">
<title>LabPorts</title>
<path fill="#c9f2c9" stroke="black" d="M533.75,-366C533.75,-366 414.25,-366 414.25,-366 408.25,-366 402.25,-360 402.25,-354 402.25,-354 402.25,-320 402.25,-320 402.25,-314 408.25,-308 414.25,-308 414.25,-308 533.75,-308 533.75,-308 539.75,-308 545.75,-314 545.75,-320 545.75,-320 545.75,-354 545.75,-354 545.75,-360 539.75,-366 533.75,-366"/>
<text xml:space="preserve" text-anchor="start" x="431.62" y="-353.5" font-family="Helvetica,sans-Serif" font-size="10.00"> &#160;&#160;&#160;&#160;&#160;&#160;&#160;&#160;&#160;&#160;&#160;&#160;&#160;&#160;&#160;</text>
<text xml:space="preserve" text-anchor="start" x="479.62" y="-353.5" font-family="Helvetica,sans-Serif" font-weight="bold" font-size="10.00">ether1</text>
<text xml:space="preserve" text-anchor="start" x="434.25" y="-343.5" font-family="Helvetica,sans-Serif" font-size="10.00"> &#160;&#160;&#160;&#160;&#160;&#160;&#160;&#160;&#160;&#160;&#160;&#160;&#160;&#160;&#160;ether2</text>
<text xml:space="preserve" text-anchor="start" x="434.25" y="-333.5" font-family="Helvetica,sans-Serif" font-size="10.00"> &#160;&#160;&#160;&#160;&#160;&#160;&#160;&#160;&#160;&#160;&#160;&#160;&#160;&#160;&#160;ether3</text>
<text xml:space="preserve" text-anchor="start" x="434.25" y="-323.5" font-family="Helvetica,sans-Serif" font-size="10.00"> &#160;&#160;&#160;&#160;&#160;&#160;&#160;&#160;&#160;&#160;&#160;&#160;&#160;&#160;&#160;ether4</text>
<text xml:space="preserve" text-anchor="start" x="410.25" y="-313.5" font-family="Helvetica,sans-Serif" font-size="10.00"> &#160;&#160;&#160;&#160;&#160;&#160;&#160;&#160;&#160;&#160;&#160;&#160;&#160;&#160;&#160;ether5 &#160;&#160;&#160;&#160;&#160;&#160;&#160;&#160;&#160;&#160;&#160;&#160;&#160;&#160;&#160;</text>
</g>
<!-- CPU&#45;&gt;LabPorts -->
<g id="edge2" class="edge">
<title>CPU&#45;&gt;LabPorts</title>
<path fill="none" stroke="black" d="M531,-437.13C531,-437.13 531,-377.8 531,-377.8"/>
<polygon fill="black" stroke="black" points="534.5,-377.8 531,-367.8 527.5,-377.8 534.5,-377.8"/>
</g>
<!-- HomePorts -->
<g id="node5" class="node">
<title>HomePorts</title>
<path fill="#cfe8ff" stroke="black" d="M764.25,-366C764.25,-366 593.75,-366 593.75,-366 587.75,-366 581.75,-360 581.75,-354 581.75,-354 581.75,-320 581.75,-320 581.75,-314 587.75,-308 593.75,-308 593.75,-308 764.25,-308 764.25,-308 770.25,-308 776.25,-314 776.25,-320 776.25,-320 776.25,-354 776.25,-354 776.25,-360 770.25,-366 764.25,-366"/>
<text xml:space="preserve" text-anchor="start" x="639.25" y="-353.5" font-family="Helvetica,sans-Serif" font-size="10.00"> &#160;&#160;&#160;&#160;&#160;&#160;&#160;&#160;&#160;&#160;&#160;&#160;&#160;&#160;&#160;ether6</text>
<text xml:space="preserve" text-anchor="start" x="639.25" y="-343.5" font-family="Helvetica,sans-Serif" font-size="10.00"> &#160;&#160;&#160;&#160;&#160;&#160;&#160;&#160;&#160;&#160;&#160;&#160;&#160;&#160;&#160;ether7</text>
<text xml:space="preserve" text-anchor="start" x="639.25" y="-333.5" font-family="Helvetica,sans-Serif" font-size="10.00"> &#160;&#160;&#160;&#160;&#160;&#160;&#160;&#160;&#160;&#160;&#160;&#160;&#160;&#160;&#160;ether8</text>
<text xml:space="preserve" text-anchor="start" x="639.25" y="-323.5" font-family="Helvetica,sans-Serif" font-size="10.00"> &#160;&#160;&#160;&#160;&#160;&#160;&#160;&#160;&#160;&#160;&#160;&#160;&#160;&#160;&#160;ether9</text>
<text xml:space="preserve" text-anchor="start" x="589.75" y="-313.5" font-family="Helvetica,sans-Serif" font-size="10.00"> &#160;&#160;&#160;&#160;&#160;&#160;&#160;&#160;&#160;&#160;&#160;&#160;&#160;&#160;&#160;</text>
<text xml:space="preserve" text-anchor="start" x="637.75" y="-313.5" font-family="Helvetica,sans-Serif" font-weight="bold" font-size="10.00">ether10 (WAN)</text>
<text xml:space="preserve" text-anchor="start" x="720.25" y="-313.5" font-family="Helvetica,sans-Serif" font-size="10.00"> &#160;&#160;&#160;&#160;&#160;&#160;&#160;&#160;&#160;&#160;&#160;&#160;&#160;&#160;&#160;</text>
</g>
<!-- CPU&#45;&gt;HomePorts -->
<g id="edge3" class="edge">
<title>CPU&#45;&gt;HomePorts</title>
<path fill="none" stroke="black" d="M569.94,-437.13C569.94,-393.71 569.94,-337 569.94,-337 569.94,-337 571.1,-337 571.1,-337"/>
<polygon fill="black" stroke="black" points="570.1,-340.5 580.1,-337 570.1,-333.5 570.1,-340.5"/>
</g>
<!-- HomeBridge -->
<g id="node6" class="node">
<title>HomeBridge</title>
<path fill="#cfe8ff" stroke="black" d="M863,-249C863,-249 781,-249 781,-249 775,-249 769,-243 769,-237 769,-237 769,-202 769,-202 769,-196 775,-190 781,-190 781,-190 863,-190 863,-190 869,-190 875,-196 875,-202 875,-202 875,-237 875,-237 875,-243 869,-249 863,-249"/>
<text xml:space="preserve" text-anchor="middle" x="822" y="-235.5" font-family="Helvetica,sans-Serif" font-size="10.00">HomeLAN Bridge</text>
<text xml:space="preserve" text-anchor="middle" x="822" y="-222.75" font-family="Helvetica,sans-Serif" font-size="10.00">192.168.1.0/24</text>
<text xml:space="preserve" text-anchor="middle" x="822" y="-210" font-family="Helvetica,sans-Serif" font-size="10.00">Gateway/DNS/NTP</text>
<text xml:space="preserve" text-anchor="middle" x="822" y="-197.25" font-family="Helvetica,sans-Serif" font-size="10.00">192.168.1.254</text>
</g>
<!-- CPU&#45;&gt;HomeBridge -->
<g id="edge18" class="edge">
<title>CPU&#45;&gt;HomeBridge</title>
<path fill="none" stroke="black" stroke-dasharray="5,2" d="M561.88,-437.02C561.88,-366.09 561.88,-243 561.88,-243 561.88,-243 757.22,-243 757.22,-243"/>
<polygon fill="black" stroke="black" points="757.22,-246.5 767.22,-243 757.22,-239.5 757.22,-246.5"/>
<text xml:space="preserve" text-anchor="middle" x="891.12" y="-334.07" font-family="Helvetica,sans-Serif" font-size="9.00">IPv4 / IPv6 Routing</text>
</g>
<!-- LabBridge -->
<g id="node11" class="node">
<title>LabBridge</title>
<path fill="#c9f2c9" stroke="black" d="M339,-237.5C339,-237.5 275,-237.5 275,-237.5 269,-237.5 263,-231.5 263,-225.5 263,-225.5 263,-213.5 263,-213.5 263,-207.5 269,-201.5 275,-201.5 275,-201.5 339,-201.5 339,-201.5 345,-201.5 351,-207.5 351,-213.5 351,-213.5 351,-225.5 351,-225.5 351,-231.5 345,-237.5 339,-237.5"/>
<text xml:space="preserve" text-anchor="middle" x="307" y="-216.38" font-family="Helvetica,sans-Serif" font-size="10.00">LabLAN Bridge</text>
</g>
<!-- CPU&#45;&gt;LabBridge -->
<g id="edge19" class="edge">
<title>CPU&#45;&gt;LabBridge</title>
<path fill="none" stroke="black" stroke-dasharray="5,2" d="M553.81,-437.05C553.81,-361.02 553.81,-223 553.81,-223 553.81,-223 362.92,-223 362.92,-223"/>
<polygon fill="black" stroke="black" points="362.92,-219.5 352.92,-223 362.92,-226.5 362.92,-219.5"/>
<text xml:space="preserve" text-anchor="middle" x="323.12" y="-334.07" font-family="Helvetica,sans-Serif" font-size="9.00">IPv4 / IPv6 Routing</text>
</g>
<!-- LabPorts&#45;&gt;LabBridge -->
<g id="edge12" class="edge">
<title>LabPorts&#45;&gt;LabBridge</title>
<path fill="none" stroke="black" d="M425.12,-307.76C425.12,-276.08 425.12,-230 425.12,-230 425.12,-230 362.84,-230 362.84,-230"/>
<polygon fill="black" stroke="black" points="362.84,-226.5 352.84,-230 362.83,-233.5 362.84,-226.5"/>
</g>
<!-- HomePorts&#45;&gt;HomeBridge -->
<g id="edge5" class="edge">
<title>HomePorts&#45;&gt;HomeBridge</title>
<path fill="none" stroke="black" d="M772.62,-307.65C772.62,-307.65 772.62,-260.8 772.62,-260.8"/>
<polygon fill="black" stroke="black" points="776.13,-260.8 772.63,-250.8 769.13,-260.8 776.13,-260.8"/>
</g>
<!-- Deco1 -->
<g id="node7" class="node">
<title>Deco1</title>
<path fill="#e8f4ff" stroke="black" d="M733.88,-131C733.88,-131 678.12,-131 678.12,-131 672.12,-131 666.12,-125 666.12,-119 666.12,-119 666.12,-107 666.12,-107 666.12,-101 672.12,-95 678.12,-95 678.12,-95 733.88,-95 733.88,-95 739.88,-95 745.88,-101 745.88,-107 745.88,-107 745.88,-119 745.88,-119 745.88,-125 739.88,-131 733.88,-131"/>
<text xml:space="preserve" text-anchor="middle" x="706" y="-116.25" font-family="Helvetica,sans-Serif" font-size="10.00">Deco X55 #1</text>
<text xml:space="preserve" text-anchor="middle" x="706" y="-103.5" font-family="Helvetica,sans-Serif" font-size="10.00">AP</text>
</g>
<!-- HomeBridge&#45;&gt;Deco1 -->
<g id="edge6" class="edge">
<title>HomeBridge&#45;&gt;Deco1</title>
<path fill="none" stroke="black" d="M773.38,-189.62C773.38,-159.99 773.38,-119 773.38,-119 773.38,-119 757.87,-119 757.87,-119"/>
<polygon fill="black" stroke="black" points="757.87,-115.5 747.87,-119 757.87,-122.5 757.87,-115.5"/>
</g>
<!-- Deco2 -->
<g id="node8" class="node">
<title>Deco2</title>
<path fill="#e8f4ff" stroke="black" d="M849.88,-131C849.88,-131 794.12,-131 794.12,-131 788.12,-131 782.12,-125 782.12,-119 782.12,-119 782.12,-107 782.12,-107 782.12,-101 788.12,-95 794.12,-95 794.12,-95 849.88,-95 849.88,-95 855.88,-95 861.88,-101 861.88,-107 861.88,-107 861.88,-119 861.88,-119 861.88,-125 855.88,-131 849.88,-131"/>
<text xml:space="preserve" text-anchor="middle" x="822" y="-116.25" font-family="Helvetica,sans-Serif" font-size="10.00">Deco X55 #2</text>
<text xml:space="preserve" text-anchor="middle" x="822" y="-103.5" font-family="Helvetica,sans-Serif" font-size="10.00">AP</text>
</g>
<!-- HomeBridge&#45;&gt;Deco2 -->
<g id="edge7" class="edge">
<title>HomeBridge&#45;&gt;Deco2</title>
<path fill="none" stroke="black" d="M822,-189.55C822,-189.55 822,-142.89 822,-142.89"/>
<polygon fill="black" stroke="black" points="825.5,-142.89 822,-132.89 818.5,-142.89 825.5,-142.89"/>
</g>
<!-- Deco3 -->
<g id="node9" class="node">
<title>Deco3</title>
<path fill="#e8f4ff" stroke="black" d="M965.88,-131C965.88,-131 910.12,-131 910.12,-131 904.12,-131 898.12,-125 898.12,-119 898.12,-119 898.12,-107 898.12,-107 898.12,-101 904.12,-95 910.12,-95 910.12,-95 965.88,-95 965.88,-95 971.88,-95 977.88,-101 977.88,-107 977.88,-107 977.88,-119 977.88,-119 977.88,-125 971.88,-131 965.88,-131"/>
<text xml:space="preserve" text-anchor="middle" x="938" y="-116.25" font-family="Helvetica,sans-Serif" font-size="10.00">Deco X55 #3</text>
<text xml:space="preserve" text-anchor="middle" x="938" y="-103.5" font-family="Helvetica,sans-Serif" font-size="10.00">AP</text>
</g>
<!-- HomeBridge&#45;&gt;Deco3 -->
<g id="edge8" class="edge">
<title>HomeBridge&#45;&gt;Deco3</title>
<path fill="none" stroke="black" d="M866.25,-189.62C866.25,-159.99 866.25,-119 866.25,-119 866.25,-119 886.42,-119 886.42,-119"/>
<polygon fill="black" stroke="black" points="886.42,-122.5 896.42,-119 886.42,-115.5 886.42,-122.5"/>
</g>
<!-- Clients -->
<g id="node10" class="node">
<title>Clients</title>
<path fill="#ffffff" stroke="black" d="M864.88,-36C864.88,-36 779.12,-36 779.12,-36 773.12,-36 767.12,-30 767.12,-24 767.12,-24 767.12,-12 767.12,-12 767.12,-6 773.12,0 779.12,0 779.12,0 864.88,0 864.88,0 870.88,0 876.88,-6 876.88,-12 876.88,-12 876.88,-24 876.88,-24 876.88,-30 870.88,-36 864.88,-36"/>
<text xml:space="preserve" text-anchor="middle" x="822" y="-14.88" font-family="Helvetica,sans-Serif" font-size="10.00">Household Devices</text>
</g>
<!-- Deco1&#45;&gt;Clients -->
<g id="edge9" class="edge">
<title>Deco1&#45;&gt;Clients</title>
<path fill="none" stroke="black" d="M746.07,-107C762.51,-107 777.75,-107 777.75,-107 777.75,-107 777.75,-47.95 777.75,-47.95"/>
<polygon fill="black" stroke="black" points="781.25,-47.95 777.75,-37.95 774.25,-47.95 781.25,-47.95"/>
</g>
<!-- Deco2&#45;&gt;Clients -->
<g id="edge10" class="edge">
<title>Deco2&#45;&gt;Clients</title>
<path fill="none" stroke="black" d="M822,-94.68C822,-94.68 822,-47.77 822,-47.77"/>
<polygon fill="black" stroke="black" points="825.5,-47.77 822,-37.77 818.5,-47.77 825.5,-47.77"/>
</g>
<!-- Deco3&#45;&gt;Clients -->
<g id="edge11" class="edge">
<title>Deco3&#45;&gt;Clients</title>
<path fill="none" stroke="black" d="M897.64,-107C883.29,-107 870.62,-107 870.62,-107 870.62,-107 870.62,-47.95 870.62,-47.95"/>
<polygon fill="black" stroke="black" points="874.13,-47.95 870.63,-37.95 867.13,-47.95 874.13,-47.95"/>
</g>
<!-- VLAN10 -->
<g id="node12" class="node">
<title>VLAN10</title>
<path fill="lightgrey" stroke="black" d="M82,-131C82,-131 12,-131 12,-131 6,-131 0,-125 0,-119 0,-119 0,-107 0,-107 0,-101 6,-95 12,-95 12,-95 82,-95 82,-95 88,-95 94,-101 94,-107 94,-107 94,-119 94,-119 94,-125 88,-131 82,-131"/>
<text xml:space="preserve" text-anchor="middle" x="47" y="-116.25" font-family="Helvetica,sans-Serif" font-size="10.00">VLAN 10</text>
<text xml:space="preserve" text-anchor="middle" x="47" y="-103.5" font-family="Helvetica,sans-Serif" font-size="10.00">192.168.10.0/24</text>
</g>
<!-- LabBridge&#45;&gt;VLAN10 -->
<g id="edge13" class="edge">
<title>LabBridge&#45;&gt;VLAN10</title>
<path fill="none" stroke="black" d="M262.6,-226C188.34,-226 47,-226 47,-226 47,-226 47,-142.92 47,-142.92"/>
<polygon fill="black" stroke="black" points="50.5,-142.92 47,-132.92 43.5,-142.92 50.5,-142.92"/>
</g>
<!-- VLAN20 -->
<g id="node13" class="node">
<title>VLAN20</title>
<path fill="lightgrey" stroke="black" d="M212,-131C212,-131 142,-131 142,-131 136,-131 130,-125 130,-119 130,-119 130,-107 130,-107 130,-101 136,-95 142,-95 142,-95 212,-95 212,-95 218,-95 224,-101 224,-107 224,-107 224,-119 224,-119 224,-125 218,-131 212,-131"/>
<text xml:space="preserve" text-anchor="middle" x="177" y="-116.25" font-family="Helvetica,sans-Serif" font-size="10.00">VLAN 20</text>
<text xml:space="preserve" text-anchor="middle" x="177" y="-103.5" font-family="Helvetica,sans-Serif" font-size="10.00">192.168.20.0/24</text>
</g>
<!-- LabBridge&#45;&gt;VLAN20 -->
<g id="edge14" class="edge">
<title>LabBridge&#45;&gt;VLAN20</title>
<path fill="none" stroke="black" d="M262.62,-214C224.96,-214 177,-214 177,-214 177,-214 177,-142.57 177,-142.57"/>
<polygon fill="black" stroke="black" points="180.5,-142.57 177,-132.57 173.5,-142.57 180.5,-142.57"/>
</g>
<!-- VLAN30 -->
<g id="node14" class="node">
<title>VLAN30</title>
<path fill="lightgrey" stroke="black" d="M342,-131C342,-131 272,-131 272,-131 266,-131 260,-125 260,-119 260,-119 260,-107 260,-107 260,-101 266,-95 272,-95 272,-95 342,-95 342,-95 348,-95 354,-101 354,-107 354,-107 354,-119 354,-119 354,-125 348,-131 342,-131"/>
<text xml:space="preserve" text-anchor="middle" x="307" y="-116.25" font-family="Helvetica,sans-Serif" font-size="10.00">VLAN 30</text>
<text xml:space="preserve" text-anchor="middle" x="307" y="-103.5" font-family="Helvetica,sans-Serif" font-size="10.00">192.168.30.0/24</text>
</g>
<!-- LabBridge&#45;&gt;VLAN30 -->
<g id="edge15" class="edge">
<title>LabBridge&#45;&gt;VLAN30</title>
<path fill="none" stroke="black" d="M307,-201.43C307,-201.43 307,-142.67 307,-142.67"/>
<polygon fill="black" stroke="black" points="310.5,-142.67 307,-132.67 303.5,-142.67 310.5,-142.67"/>
</g>
<!-- VLAN40 -->
<g id="node15" class="node">
<title>VLAN40</title>
<path fill="lightgrey" stroke="black" d="M436,-131C436,-131 402,-131 402,-131 396,-131 390,-125 390,-119 390,-119 390,-107 390,-107 390,-101 396,-95 402,-95 402,-95 436,-95 436,-95 442,-95 448,-101 448,-107 448,-107 448,-119 448,-119 448,-125 442,-131 436,-131"/>
<text xml:space="preserve" text-anchor="middle" x="419" y="-116.25" font-family="Helvetica,sans-Serif" font-size="10.00">VLAN 40</text>
<text xml:space="preserve" text-anchor="middle" x="419" y="-103.5" font-family="Helvetica,sans-Serif" font-size="10.00">L2 only</text>
</g>
<!-- LabBridge&#45;&gt;VLAN40 -->
<g id="edge16" class="edge">
<title>LabBridge&#45;&gt;VLAN40</title>
<path fill="none" stroke="black" d="M351.3,-209C373.67,-209 396.12,-209 396.12,-209 396.12,-209 396.12,-142.57 396.12,-142.57"/>
<polygon fill="black" stroke="black" points="399.63,-142.57 396.13,-132.57 392.63,-142.57 399.63,-142.57"/>
</g>
<!-- VLAN88 -->
<g id="node16" class="node">
<title>VLAN88</title>
<path fill="lightgrey" stroke="black" d="M566,-131C566,-131 496,-131 496,-131 490,-131 484,-125 484,-119 484,-119 484,-107 484,-107 484,-101 490,-95 496,-95 496,-95 566,-95 566,-95 572,-95 578,-101 578,-107 578,-107 578,-119 578,-119 578,-125 572,-131 566,-131"/>
<text xml:space="preserve" text-anchor="middle" x="531" y="-116.25" font-family="Helvetica,sans-Serif" font-size="10.00">VLAN 88</text>
<text xml:space="preserve" text-anchor="middle" x="531" y="-103.5" font-family="Helvetica,sans-Serif" font-size="10.00">192.168.88.0/24</text>
</g>
<!-- LabBridge&#45;&gt;VLAN88 -->
<g id="edge17" class="edge">
<title>LabBridge&#45;&gt;VLAN88</title>
<path fill="none" stroke="black" d="M351.34,-216C412.39,-216 514.88,-216 514.88,-216 514.88,-216 514.88,-142.93 514.88,-142.93"/>
<polygon fill="black" stroke="black" points="518.38,-142.93 514.88,-132.93 511.38,-142.93 518.38,-142.93"/>
</g>
</g>
</svg>
